# Created by FreeCAD <http://www.freecadweb.org>
v 20.000000 21.000000 -1.000000
v 0.000000 107.000000 -1.000000
v 20.000000 86.000000 -1.000000
v 0.000000 0.000000 -1.000000
v 110.000000 21.000000 -1.000000
v 130.000000 0.000000 -1.000000
v 110.000000 86.000000 -1.000000
v 130.000000 107.000000 -1.000000
v 0.000000 0.000000 0.000000
v 130.000000 0.000000 0.000000
v 0.000000 106.000000 0.000000
v 0.000000 107.000000 0.000000
v 0.000000 104.500000 0.000000
v 0.000000 103.500000 0.000000
v 0.000000 3.500000 0.000000
v 0.000000 2.500000 0.000000
v 0.000000 1.000000 0.000000
v 130.000000 1.000000 0.000000
v 130.000000 2.500000 0.000000
v 130.000000 3.500000 0.000000
v 130.000000 103.500000 0.000000
v 130.000000 104.500000 0.000000
v 130.000000 106.000000 0.000000
v 130.000000 107.000000 0.000000
v 20.000000 21.000000 0.000000
v 20.000000 86.000000 0.000000
v 110.000000 21.000000 0.000000
v 110.000000 86.000000 0.000000
v 0.000000 0.000000 2.000000
v 130.000000 0.000000 2.000000
v 0.000000 106.000000 2.000000
v 0.000000 107.000000 2.000000
v 0.000000 103.500000 2.000000
v 0.000000 104.500000 2.000000
v 0.000000 1.000000 2.000000
v 0.000000 2.500000 2.000000
v 0.000000 3.500000 2.000000
v 130.000000 1.000000 2.000000
v 130.000000 3.500000 2.000000
v 130.000000 2.500000 2.000000
v 130.000000 107.000000 2.000000
v 130.000000 106.000000 2.000000
v 130.000000 104.500000 2.000000
v 130.000000 103.500000 2.000000
vn 0.000000 0.000000 -1.000000
vn 0.000000 0.000000 -1.000000
vn 0.000000 0.000000 -1.000000
vn 0.000000 -0.000000 -1.000000
vn 0.000000 0.000000 -1.000000
vn 0.000000 0.000000 -1.000000
vn 0.000000 0.000000 -1.000000
vn 0.000000 0.000000 -1.000000
vn 0.000000 -1.000000 0.000000
vn -0.000000 -1.000000 -0.000000
vn -1.000000 0.000000 0.000000
vn -1.000000 0.000000 0.000000
vn -1.000000 0.000000 0.000000
vn -1.000000 0.000000 0.000000
vn -1.000000 0.000000 0.000000
vn -1.000000 0.000000 0.000000
vn -1.000000 0.000000 -0.000000
vn -1.000000 0.000000 0.000000
vn 1.000000 0.000000 0.000000
vn 1.000000 0.000000 0.000000
vn 1.000000 0.000000 0.000000
vn 1.000000 0.000000 0.000000
vn 1.000000 0.000000 0.000000
vn 1.000000 0.000000 0.000000
vn 1.000000 0.000000 0.000000
vn 1.000000 0.000000 0.000000
vn 0.000000 1.000000 0.000000
vn -0.000000 1.000000 0.000000
vn 1.000000 0.000000 0.000000
vn 1.000000 0.000000 0.000000
vn 0.000000 1.000000 0.000000
vn -0.000000 1.000000 0.000000
vn -1.000000 0.000000 0.000000
vn -1.000000 0.000000 0.000000
vn 0.000000 -1.000000 -0.000000
vn -0.000000 -1.000000 0.000000
vn 0.000000 -1.000000 0.000000
vn 0.000000 -1.000000 0.000000
vn -1.000000 0.000000 0.000000
vn -1.000000 0.000000 0.000000
vn 0.000000 0.000000 1.000000
vn 0.000000 0.000000 1.000000
vn -1.000000 0.000000 0.000000
vn -1.000000 0.000000 0.000000
vn -1.000000 0.000000 0.000000
vn -1.000000 0.000000 0.000000
vn 0.000000 0.000000 1.000000
vn 0.000000 0.000000 1.000000
vn 0.000000 0.000000 1.000000
vn 0.000000 0.000000 1.000000
vn 0.000000 0.000000 1.000000
vn 0.000000 0.000000 1.000000
vn 0.000000 0.000000 1.000000
vn 0.000000 0.000000 1.000000
vn 0.000000 0.000000 1.000000
vn 0.000000 0.000000 1.000000
vn -1.000000 0.000000 0.000000
vn -1.000000 0.000000 0.000000
vn 1.000000 0.000000 0.000000
vn 1.000000 0.000000 0.000000
vn 1.000000 0.000000 0.000000
vn 1.000000 0.000000 0.000000
vn 1.000000 0.000000 0.000000
vn 1.000000 0.000000 0.000000
vn 1.000000 0.000000 0.000000
vn 1.000000 0.000000 0.000000
vn 0.000000 1.000000 0.000000
vn 0.000000 1.000000 -0.000000
vn 0.000000 0.000000 1.000000
vn 0.000000 0.000000 1.000000
vn 0.000000 -1.000000 0.000000
vn 0.000000 -1.000000 0.000000
vn 0.000000 0.000000 1.000000
vn 0.000000 0.000000 1.000000
vn 0.000000 1.000000 0.000000
vn 0.000000 1.000000 -0.000000
vn 0.000000 -1.000000 0.000000
vn 0.000000 -1.000000 0.000000
vn 0.000000 0.000000 1.000000
vn 0.000000 0.000000 1.000000
vn 0.000000 1.000000 0.000000
vn 0.000000 1.000000 -0.000000
vn 0.000000 1.000000 0.000000
vn 0.000000 1.000000 -0.000000
vn 0.000000 -1.000000 0.000000
vn 0.000000 -1.000000 0.000000
vn 0.000000 0.000000 1.000000
vn 0.000000 0.000000 1.000000
f 1//1 2//1 3//1
f 4//2 2//2 1//2
f 4//3 5//3 6//3
f 1//4 5//4 4//4
f 7//5 8//5 5//5
f 3//6 8//6 7//6
f 5//7 8//7 6//7
f 2//8 8//8 3//8
f 6//9 9//9 4//9
f 10//10 9//10 6//10
f 11//11 12//11 2//11
f 13//12 11//12 2//12
f 14//13 13//13 2//13
f 4//14 15//14 14//14
f 4//15 16//15 15//15
f 4//16 14//16 2//16
f 17//17 16//17 4//17
f 9//18 17//18 4//18
f 18//19 10//19 6//19
f 19//20 18//20 6//20
f 20//21 19//21 6//21
f 8//22 21//22 20//22
f 8//23 22//23 21//23
f 8//24 20//24 6//24
f 23//25 22//25 8//25
f 24//26 23//26 8//26
f 2//27 24//27 8//27
f 12//28 24//28 2//28
f 3//29 25//29 1//29
f 26//30 25//30 3//30
f 25//31 5//31 1//31
f 25//32 27//32 5//32
f 5//33 28//33 7//33
f 27//34 28//34 5//34
f 28//35 3//35 7//35
f 28//36 26//36 3//36
f 29//37 10//37 30//37
f 9//38 10//38 29//38
f 12//39 11//39 31//39
f 12//40 31//40 32//40
f 23//41 13//41 22//41
f 23//42 11//42 13//42
f 13//43 14//43 33//43
f 13//44 33//44 34//44
f 17//45 9//45 29//45
f 17//46 29//46 35//46
f 26//47 14//47 15//47
f 26//48 15//48 25//48
f 27//49 25//49 15//49
f 20//50 27//50 15//50
f 21//51 28//51 27//51
f 21//52 27//52 20//52
f 21//53 14//53 26//53
f 21//54 26//54 28//54
f 19//55 17//55 18//55
f 19//56 16//56 17//56
f 15//57 16//57 36//57
f 15//58 36//58 37//58
f 10//59 18//59 38//59
f 10//60 38//60 30//60
f 19//61 20//61 39//61
f 19//62 39//62 40//62
f 23//63 24//63 41//63
f 23//64 41//64 42//64
f 21//65 22//65 43//65
f 21//66 43//66 44//66
f 41//67 12//67 32//67
f 24//68 12//68 41//68
f 38//69 29//69 30//69
f 38//70 35//70 29//70
f 31//71 23//71 42//71
f 11//72 23//72 31//72
f 41//73 31//73 42//73
f 41//74 32//74 31//74
f 43//75 13//75 34//75
f 22//76 13//76 43//76
f 33//77 21//77 44//77
f 14//78 21//78 33//78
f 43//79 33//79 44//79
f 43//80 34//80 33//80
f 38//81 17//81 35//81
f 18//82 17//82 38//82
f 39//83 15//83 37//83
f 20//84 15//84 39//84
f 36//85 19//85 40//85
f 16//86 19//86 36//86
f 39//87 36//87 40//87
f 39//88 37//88 36//88
