# Created by FreeCAD <http://www.freecadweb.org>
v 130.000000 0.000000 -1.000000
v 0.000000 0.000000 0.000000
v 0.000000 0.000000 -1.000000
v 130.000000 0.000000 0.000000
v 0.000000 68.000000 0.000000
v 0.000000 68.000000 -1.000000
v 130.000000 68.000000 -1.000000
v 130.000000 68.000000 0.000000
v 4.000000 8.000000 0.000000
v 4.000000 7.000000 0.000000
v 4.000000 10.700000 0.000000
v 4.000000 11.700000 0.000000
v 4.000000 57.299999 0.000000
v 4.000000 60.000000 0.000000
v 4.000000 56.299999 0.000000
v 4.000000 61.000000 0.000000
v 104.000000 7.000000 0.000000
v 104.000000 10.700000 0.000000
v 104.000000 8.000000 0.000000
v 111.674416 3.700000 0.000000
v 114.000000 3.700000 0.000000
v 114.000000 19.000000 0.000000
v 104.000000 56.299999 0.000000
v 104.000000 11.700000 0.000000
v 112.795181 19.000000 0.000000
v 106.826088 55.000000 0.000000
v 109.000000 55.000000 0.000000
v 104.000000 61.000000 0.000000
v 112.000000 65.000000 0.000000
v 114.000000 65.000000 0.000000
v 104.000000 57.299999 0.000000
v 104.000000 60.000000 0.000000
v 4.000000 57.299999 25.000000
v 4.000000 60.000000 25.000000
v 4.000000 57.299999 28.000000
v 4.000000 56.299999 28.000000
v 104.000000 56.299999 28.000000
v 106.826088 55.000000 28.000000
v 109.000000 55.000000 28.000000
v 104.000000 57.299999 25.000000
v 104.000000 57.299999 28.000000
v 104.000000 60.000000 25.000000
v 114.000000 65.000000 28.000000
v 104.000000 60.000000 28.000000
v 112.000000 65.000000 28.000000
v 104.000000 61.000000 28.000000
v 4.000000 61.000000 28.000000
v 4.000000 60.000000 28.000000
v 4.000000 10.700000 3.000000
v 104.000000 10.700000 3.000000
v 114.000000 19.000000 3.000000
v 4.000000 11.700000 3.000000
v 112.795181 19.000000 3.000000
v 104.000000 11.700000 3.000000
v 4.000000 7.000000 3.000000
v 104.000000 7.000000 3.000000
v 111.674416 3.700000 3.000000
v 4.000000 8.000000 3.000000
v 114.000000 3.700000 3.000000
v 104.000000 8.000000 3.000000
vn 0.000000 -1.000000 0.000000
vn -0.000000 -1.000000 -0.000000
vn -1.000000 0.000000 0.000000
vn -1.000000 0.000000 0.000000
vn 1.000000 0.000000 0.000000
vn 1.000000 0.000000 0.000000
vn 0.000000 0.000000 1.000000
vn 0.000000 0.000000 1.000000
vn 0.000000 0.000000 1.000000
vn 0.000000 0.000000 1.000000
vn 0.000000 0.000000 1.000000
vn 0.000000 0.000000 1.000000
vn 0.000000 0.000000 1.000000
vn 0.000000 0.000000 1.000000
vn 0.000000 0.000000 1.000000
vn 0.000000 0.000000 1.000000
vn 0.000000 0.000000 1.000000
vn 0.000000 0.000000 1.000000
vn 0.000000 0.000000 1.000000
vn 0.000000 0.000000 1.000000
vn 0.000000 0.000000 1.000000
vn 0.000000 0.000000 1.000000
vn 0.000000 0.000000 1.000000
vn 0.000000 0.000000 1.000000
vn 0.000000 0.000000 1.000000
vn 0.000000 0.000000 1.000000
vn 0.000000 0.000000 1.000000
vn 0.000000 0.000000 1.000000
vn 0.000000 0.000000 1.000000
vn 0.000000 0.000000 1.000000
vn 0.000000 0.000000 1.000000
vn 0.000000 0.000000 1.000000
vn 0.000000 0.000000 1.000000
vn 0.000000 0.000000 1.000000
vn -0.000000 0.000000 1.000000
vn 0.000000 0.000000 1.000000
vn -0.000000 0.000000 1.000000
vn -0.000000 0.000000 1.000000
vn 0.000000 0.000000 -1.000000
vn 0.000000 0.000000 -1.000000
vn 0.000000 1.000000 0.000000
vn -0.000000 1.000000 0.000000
vn -1.000000 0.000000 0.000000
vn -1.000000 0.000000 0.000000
vn -1.000000 -0.000000 -0.000000
vn -1.000000 0.000000 0.000000
vn -1.000000 0.000000 0.000000
vn 0.000000 -1.000000 0.000000
vn 0.000000 -1.000000 0.000000
vn -0.417905 -0.908491 0.000000
vn -0.417905 -0.908491 0.000000
vn 0.000000 -1.000000 0.000000
vn 0.000000 -1.000000 0.000000
vn 0.417906 0.908491 0.000000
vn 0.417906 0.908491 0.000000
vn 0.417905 0.908490 -0.000000
vn 1.000000 0.000000 -0.000000
vn 1.000000 0.000000 0.000000
vn 0.447214 -0.894427 0.000000
vn 0.447214 -0.894427 0.000000
vn 0.447214 -0.894427 0.000000
vn 0.000000 1.000000 0.000000
vn 0.000000 1.000000 0.000000
vn -0.447214 0.894427 0.000000
vn -0.447214 0.894427 0.000000
vn 0.000000 1.000000 -0.000000
vn 0.000000 1.000000 0.000000
vn -1.000000 -0.000000 0.000000
vn -1.000000 0.000000 0.000000
vn -1.000000 0.000000 -0.000000
vn 0.000000 -1.000000 0.000000
vn 0.000000 -1.000000 0.000000
vn 0.638669 -0.769481 0.000000
vn 0.638669 -0.769481 0.000000
vn -1.000000 0.000000 0.000000
vn -1.000000 0.000000 0.000000
vn 0.000000 1.000000 0.000000
vn 0.000000 1.000000 -0.000000
vn 0.000000 1.000000 0.000000
vn 0.000000 1.000000 -0.000000
vn -0.638669 0.769481 0.000000
vn -0.638669 0.769481 0.000000
vn 0.000000 -1.000000 0.000000
vn 0.000000 -1.000000 0.000000
vn -0.395028 -0.918669 0.000000
vn -0.395028 -0.918669 0.000000
vn -1.000000 0.000000 0.000000
vn -1.000000 0.000000 0.000000
vn 0.000000 -1.000000 0.000000
vn 0.000000 -1.000000 0.000000
vn 0.000000 1.000000 0.000000
vn 0.000000 1.000000 -0.000000
vn 0.395028 0.918669 0.000000
vn 0.395028 0.918669 -0.000000
vn 0.000000 0.000000 1.000000
vn 0.000000 0.000000 1.000000
vn 0.000000 1.000000 -0.000000
vn 0.000000 1.000000 0.000000
vn 0.000000 0.000000 1.000000
vn 0.000000 0.000000 1.000000
vn 0.000000 0.000000 1.000000
vn 0.000000 0.000000 1.000000
vn -0.000000 0.000000 1.000000
vn 0.000000 0.000000 1.000000
vn 0.000000 -1.000000 0.000000
vn 0.000000 -1.000000 0.000000
vn 0.000000 0.000000 1.000000
vn 0.000000 0.000000 1.000000
vn 0.000000 0.000000 1.000000
vn 0.000000 0.000000 1.000000
vn 0.000000 0.000000 1.000000
vn 0.000000 0.000000 1.000000
vn 0.000000 0.000000 1.000000
vn 0.000000 0.000000 1.000000
vn 0.000000 0.000000 1.000000
vn 0.000000 0.000000 1.000000
f 1//1 2//1 3//1
f 4//2 2//2 1//2
f 3//3 5//3 6//3
f 2//4 5//4 3//4
f 7//5 4//5 1//5
f 8//6 4//6 7//6
f 9//7 2//7 10//7
f 11//8 2//8 9//8
f 12//9 2//9 11//9
f 5//10 13//10 14//10
f 5//11 15//11 13//11
f 5//12 14//12 16//12
f 5//13 2//13 12//13
f 5//14 12//14 15//14
f 17//15 10//15 2//15
f 18//16 9//16 19//16
f 18//17 11//17 9//17
f 20//18 17//18 2//18
f 4//19 21//19 20//19
f 4//20 20//20 2//20
f 22//21 21//21 4//21
f 23//22 12//22 24//22
f 23//23 24//23 25//23
f 23//24 15//24 12//24
f 26//25 23//25 25//25
f 27//26 25//26 22//26
f 27//27 26//27 25//27
f 28//28 5//28 16//28
f 8//29 29//29 30//29
f 8//30 22//30 4//30
f 8//31 27//31 22//31
f 8//32 30//32 27//32
f 8//33 5//33 29//33
f 29//34 5//34 28//34
f 31//35 27//35 32//35
f 30//36 32//36 27//36
f 19//37 21//37 18//37
f 18//38 21//38 22//38
f 3//39 7//39 1//39
f 6//40 7//40 3//40
f 6//41 8//41 7//41
f 5//42 8//42 6//42
f 13//43 33//43 34//43
f 14//44 13//44 34//44
f 35//45 33//45 36//45
f 13//46 15//46 33//46
f 15//47 36//47 33//47
f 15//48 23//48 36//48
f 36//49 23//49 37//49
f 23//50 26//50 38//50
f 23//51 38//51 37//51
f 26//52 27//52 39//52
f 26//53 39//53 38//53
f 39//54 40//54 41//54
f 27//55 31//55 40//55
f 27//56 40//56 39//56
f 32//57 42//57 40//57
f 31//58 32//58 40//58
f 42//59 43//59 44//59
f 30//60 43//60 42//60
f 32//61 30//61 42//61
f 43//62 30//62 45//62
f 30//63 29//63 45//63
f 29//64 28//64 46//64
f 29//65 46//65 45//65
f 28//66 16//66 46//66
f 46//67 16//67 47//67
f 47//68 34//68 48//68
f 16//69 14//69 34//69
f 47//70 16//70 34//70
f 49//71 18//71 50//71
f 11//72 18//72 49//72
f 18//73 22//73 50//73
f 50//74 22//74 51//74
f 12//75 11//75 49//75
f 12//76 49//76 52//76
f 22//77 25//77 53//77
f 22//78 53//78 51//78
f 54//79 12//79 52//79
f 24//80 12//80 54//80
f 25//81 24//81 53//81
f 53//82 24//82 54//82
f 55//83 17//83 56//83
f 10//84 17//84 55//84
f 17//85 20//85 57//85
f 17//86 57//86 56//86
f 9//87 10//87 55//87
f 9//88 55//88 58//88
f 20//89 21//89 59//89
f 20//90 59//90 57//90
f 60//91 9//91 58//91
f 19//92 9//92 60//92
f 21//93 19//93 60//93
f 21//94 60//94 59//94
f 42//95 34//95 40//95
f 40//96 34//96 33//96
f 40//97 35//97 41//97
f 40//98 33//98 35//98
f 41//99 36//99 37//99
f 41//100 35//100 36//100
f 38//101 41//101 37//101
f 39//102 41//102 38//102
f 45//103 44//103 43//103
f 45//104 46//104 44//104
f 34//105 44//105 48//105
f 34//106 42//106 44//106
f 46//107 48//107 44//107
f 46//108 47//108 48//108
f 54//109 52//109 50//109
f 50//110 52//110 49//110
f 53//111 54//111 50//111
f 51//112 53//112 50//112
f 60//113 58//113 56//113
f 56//114 58//114 55//114
f 57//115 60//115 56//115
f 59//116 60//116 57//116
